<?xml version="1.0" encoding="UTF-8" ?>
<!DOCTYPE svg PUBLIC "-//W3C//DTD SVG 1.1//EN" "http://www.w3.org/Graphics/SVG/1.1/DTD/svg11.dtd">
<svg width="443pt" height="127pt" viewBox="0 0 1450 415" version="1.1" xmlns="http://www.w3.org/2000/svg">
<g id="#ffffffff">
</g>
<g id="#003a63ff">
<path fill="#003a63" opacity="1.00" d=" M 281.06 8.02 C 308.56 8.01 336.06 8.01 363.56 8.02 C 363.52 138.21 363.58 268.39 363.54 398.58 C 336.04 398.53 308.54 398.58 281.05 398.55 C 281.07 268.38 281.05 138.20 281.06 8.02 Z" />
<path fill="#003a63" opacity="1.00" d=" M 488.59 157.37 C 516.47 150.84 546.39 152.50 573.15 162.87 C 601.77 173.91 626.33 195.61 639.84 223.26 C 645.51 234.43 648.98 246.57 651.14 258.88 C 654.21 281.03 651.98 304.06 643.45 324.82 C 630.82 356.35 604.41 381.68 572.83 393.92 C 533.84 409.13 487.88 406.37 451.58 385.26 C 432.85 374.34 417.02 358.43 406.38 339.54 C 384.96 301.64 385.63 252.39 408.24 215.17 C 425.59 185.90 455.62 165.08 488.59 157.37 M 517.02 225.00 C 501.78 225.89 487.50 234.84 479.84 248.00 C 471.30 262.32 469.68 280.32 474.61 296.15 C 479.35 311.24 490.93 324.51 506.14 329.54 C 523.84 335.82 545.17 330.93 557.70 316.73 C 576.76 295.23 575.74 259.01 555.22 238.81 C 545.34 228.89 530.92 223.75 517.02 225.00 Z" />
<path fill="#003a63" opacity="1.00" d=" M 1002.54 190.47 C 1026.09 166.69 1059.66 153.69 1093.00 154.05 C 1115.71 153.64 1138.85 158.67 1158.37 170.57 C 1173.35 179.61 1185.71 192.61 1194.88 207.45 C 1178.38 220.07 1161.66 232.42 1145.06 244.91 C 1142.71 246.58 1140.60 248.60 1138.00 249.87 C 1130.46 238.62 1119.48 228.87 1105.90 226.06 C 1100.97 225.27 1095.96 224.36 1090.95 224.86 C 1079.07 225.97 1067.68 231.88 1060.31 241.32 C 1046.54 258.16 1044.67 282.48 1052.25 302.39 C 1057.10 314.93 1067.06 325.62 1079.83 330.21 C 1087.32 332.76 1095.32 333.02 1103.13 332.20 C 1118.28 329.90 1131.00 319.75 1140.11 307.91 C 1159.04 320.99 1177.31 335.04 1196.03 348.44 C 1186.56 363.71 1173.51 376.92 1158.17 386.36 C 1138.15 398.70 1114.31 403.53 1091.01 403.52 C 1062.09 403.73 1033.02 393.78 1010.88 375.05 C 984.55 353.28 968.54 319.96 966.97 285.92 C 964.84 251.01 977.72 215.27 1002.54 190.47 Z" />
<path fill="#003a63" opacity="1.00" d=" M 34.89 173.92 C 72.23 157.83 113.72 152.66 154.05 156.40 C 175.54 158.62 197.44 164.74 214.50 178.52 C 226.08 187.72 234.91 200.29 239.71 214.28 C 244.52 227.65 245.95 241.93 246.36 256.04 C 246.35 303.26 246.30 350.47 246.39 397.69 C 218.84 397.85 191.27 397.96 163.73 397.64 C 163.71 389.63 164.06 381.59 163.55 373.60 C 149.96 389.20 130.45 399.30 109.98 401.98 C 88.86 404.79 66.36 402.20 47.77 391.26 C 30.70 381.34 18.70 363.31 16.21 343.73 L 15.74 343.12 C 14.92 330.67 14.36 317.92 17.74 305.77 L 18.14 305.13 C 22.72 287.83 35.51 273.31 51.34 265.27 C 70.77 255.05 93.26 252.59 114.92 253.35 C 131.70 254.19 148.51 256.90 164.40 262.45 C 164.93 251.22 162.45 238.87 153.80 231.01 C 144.68 222.72 131.96 220.60 120.09 219.88 C 96.77 219.53 73.49 224.35 51.98 233.35 C 46.61 213.45 40.65 193.71 34.89 173.92 M 102.55 304.52 C 94.70 312.51 93.15 325.39 97.45 335.50 C 100.84 343.25 108.72 348.20 116.87 349.60 C 132.89 352.54 151.46 346.45 159.89 331.86 C 165.73 322.45 165.40 311.05 165.37 300.41 C 153.36 295.13 139.96 293.54 126.93 294.33 C 118.06 295.13 108.97 298.11 102.55 304.52 Z" />
<path fill="#003a63" opacity="1.00" d=" M 788.63 167.67 C 801.92 157.54 819.09 154.01 835.52 154.78 C 835.61 184.26 835.49 213.74 835.58 243.22 C 819.27 242.82 801.85 244.52 788.14 254.16 C 774.39 263.41 766.66 279.21 763.44 295.07 C 760.90 307.22 760.57 319.69 760.68 332.06 C 760.67 353.99 760.70 375.92 760.66 397.85 C 732.93 397.75 705.20 397.84 677.47 397.80 C 677.49 318.11 677.45 238.42 677.49 158.72 C 705.22 158.72 732.96 158.72 760.69 158.72 C 760.63 174.56 760.75 190.39 760.63 206.23 C 767.18 191.69 775.53 177.26 788.63 167.67 Z" />
<path fill="#003a63" opacity="1.00" d=" M 1293.92 156.38 C 1315.55 154.60 1337.55 154.56 1358.91 158.85 C 1378.34 162.74 1397.52 171.10 1411.22 185.81 C 1426.63 201.49 1433.24 223.67 1434.64 245.15 C 1436.45 253.98 1435.49 263.08 1435.75 272.04 C 1435.75 313.95 1435.73 355.86 1435.76 397.78 C 1408.04 397.81 1380.33 397.86 1352.62 397.75 C 1352.61 389.66 1352.71 381.57 1352.56 373.48 C 1339.16 388.75 1320.20 398.92 1300.10 401.78 C 1279.57 404.79 1257.70 402.64 1239.20 392.75 C 1227.58 386.61 1217.84 376.99 1211.83 365.28 C 1204.45 351.18 1202.52 334.74 1204.17 319.07 C 1205.36 304.22 1211.46 289.60 1221.90 278.88 C 1235.29 264.64 1254.60 257.65 1273.56 254.81 C 1300.19 251.01 1327.52 254.19 1353.13 262.13 C 1353.60 252.67 1352.03 242.59 1346.13 234.91 C 1340.11 227.02 1330.45 222.89 1320.91 221.22 C 1309.72 219.09 1298.33 219.95 1287.08 221.02 C 1276.49 222.30 1266.03 224.55 1255.89 227.85 C 1253.63 228.63 1251.36 229.34 1249.14 230.17 C 1246.32 231.09 1243.61 232.29 1240.75 233.05 C 1235.17 213.32 1229.56 193.59 1223.73 173.93 C 1246.02 164.48 1269.77 158.38 1293.92 156.38 M 1298.83 299.06 C 1292.04 302.46 1286.93 308.72 1284.77 315.98 C 1283.55 322.98 1283.49 330.58 1286.98 336.99 C 1290.87 344.14 1298.58 348.50 1306.47 349.74 C 1322.33 352.34 1340.52 346.17 1348.79 331.75 C 1354.52 322.30 1354.32 310.88 1354.14 300.22 C 1346.46 297.12 1338.31 295.22 1330.08 294.44 C 1319.53 293.65 1308.38 293.97 1298.83 299.06 Z" />
<path fill="#003a63" opacity="1.00" d=" M 856.70 158.74 C 884.39 158.71 912.08 158.71 939.77 158.74 C 939.70 238.44 939.79 318.14 939.72 397.84 C 912.04 397.69 884.35 397.97 856.67 397.70 C 856.74 318.05 856.68 238.40 856.70 158.74 Z" />
</g>
<g id="#f58026ff">
<path fill="#f58026" opacity="1.00" d=" M 854.70 7.90 C 860.60 12.41 865.25 18.29 870.85 23.15 C 894.19 46.48 918.10 69.24 941.44 92.58 C 942.13 107.42 941.42 122.42 941.79 137.32 C 912.77 137.44 883.75 137.40 854.73 137.34 C 854.71 94.19 854.77 51.05 854.70 7.90 Z" />
</g>
</svg>
